<svg width="28" height="28" viewBox="0 0 28 28" fill="none" xmlns="http://www.w3.org/2000/svg">
<mask id="mask0_612_10" style="mask-type:luminance" maskUnits="userSpaceOnUse" x="0" y="0" width="28" height="28">
<path d="M28 0H0V28H28V0Z" fill="white"/>
</mask>
<g mask="url(#mask0_612_10)">
<path d="M14.0001 0.0175781C10.2027 0.0175781 9.72648 0.0336788 8.23508 0.101679C6.74678 0.169579 5.73038 0.405979 4.84098 0.751579C3.92148 1.10888 3.14178 1.58708 2.36438 2.36438C1.58708 3.14168 1.10887 3.92158 0.751675 4.84098C0.405975 5.73038 0.169677 6.74678 0.101677 8.23508C0.0336769 9.72648 0.0175781 10.2027 0.0175781 14.0001C0.0175781 17.7975 0.0336769 18.2737 0.101677 19.7651C0.169677 21.2534 0.405975 22.2698 0.751675 23.1592C1.10897 24.0786 1.58708 24.8584 2.36438 25.6358C3.14178 26.4131 3.92148 26.8913 4.84098 27.2486C5.73038 27.5942 6.74678 27.8306 8.23508 27.8985C9.72648 27.9665 10.2027 27.9826 14.0001 27.9826C17.7975 27.9826 18.2737 27.9665 19.7651 27.8985C21.2534 27.8306 22.2698 27.5942 23.1592 27.2486C24.0787 26.8913 24.8584 26.4131 25.6358 25.6358C26.4131 24.8584 26.8913 24.0786 27.2486 23.1592C27.5942 22.2698 27.8306 21.2534 27.8985 19.7651C27.9665 18.2737 27.9826 17.7975 27.9826 14.0001C27.9826 10.2027 27.9665 9.72648 27.8985 8.23508C27.8306 6.74678 27.5942 5.73038 27.2486 4.84098C26.8913 3.92158 26.4131 3.14168 25.6358 2.36438C24.8584 1.58708 24.0787 1.10888 23.1592 0.751579C22.2698 0.405979 21.2534 0.169579 19.7651 0.101679C18.2737 0.0336788 17.7975 0.0175781 14.0001 0.0175781ZM14.0001 2.53688C17.7336 2.53688 18.1758 2.55118 19.6502 2.61848C21.0136 2.68058 21.7539 2.90838 22.2466 3.09988C22.8993 3.35358 23.3651 3.65658 23.8543 4.14578C24.3437 4.63508 24.6466 5.10098 24.9003 5.75358C25.0918 6.24628 25.3196 6.98668 25.3817 8.34998C25.449 9.82438 25.4633 10.2666 25.4633 14.0001C25.4633 17.7336 25.449 18.1758 25.3817 19.6502C25.3196 21.0135 25.0918 21.7539 24.9003 22.2466C24.6466 22.8993 24.3437 23.3651 23.8543 23.8543C23.3651 24.3436 22.8993 24.6466 22.2466 24.9003C21.7539 25.0918 21.0135 25.3196 19.6502 25.3817C18.1761 25.449 17.7339 25.4633 14.0001 25.4633C10.2663 25.4633 9.82418 25.449 8.34998 25.3817C6.98668 25.3196 6.24628 25.0918 5.75358 24.9003C5.10088 24.6466 4.63508 24.3436 4.14588 23.8543C3.65658 23.3651 3.35358 22.8992 3.09988 22.2466C2.90838 21.7539 2.68068 21.0135 2.61848 19.6502C2.55118 18.1758 2.53688 17.7336 2.53688 14.0001C2.53688 10.2666 2.55118 9.82438 2.61848 8.34998C2.68068 6.98668 2.90838 6.24628 3.09988 5.75358C3.35358 5.10088 3.65658 4.63508 4.14588 4.14588C4.63508 3.65658 5.10098 3.35358 5.75358 3.09988C6.24628 2.90838 6.98668 2.68058 8.34998 2.61848C9.82438 2.55118 10.2667 2.53688 14.0001 2.53688Z" fill="#2596FF"/>
<path d="M14 18.661C11.4259 18.661 9.33912 16.5743 9.33912 14.0002C9.33912 11.4261 11.4259 9.3393 14 9.3393C16.5741 9.3393 18.6609 11.4261 18.6609 14.0002C18.6609 16.5743 16.5741 18.661 14 18.661ZM14 6.82C10.0345 6.82 6.81982 10.0346 6.81982 14.0002C6.81982 17.9657 10.0345 21.1804 14 21.1804C17.9655 21.1804 21.1802 17.9657 21.1802 14.0002C21.1802 10.0346 17.9655 6.82 14 6.82ZM23.1418 6.5363C23.1418 7.463 22.3906 8.2142 21.4639 8.2142C20.5373 8.2142 19.786 7.463 19.786 6.5363C19.786 5.6096 20.5373 4.8584 21.4639 4.8584C22.3906 4.8584 23.1418 5.6096 23.1418 6.5363Z" fill="#2596FF"/>
</g>
</svg>
