<svg width="33" height="34" viewBox="0 0 33 34" fill="none" xmlns="http://www.w3.org/2000/svg">
<path d="M15.1666 20.3342L9.49994 16.9998C9.18883 16.8165 8.91639 16.8508 8.68261 17.1029C8.44883 17.355 8.42128 17.6415 8.59995 17.9623L15.3666 28.9279C15.6333 29.3633 16.0111 29.5811 16.4999 29.5811C16.9888 29.5811 17.3666 29.3633 17.6333 28.9279L24.3999 17.9623C24.5777 17.6415 24.5497 17.355 24.3159 17.1029C24.0822 16.8508 23.8102 16.8165 23.4999 16.9998L17.8333 20.3342V4.62481C17.8333 4.23522 17.7053 3.90843 17.4493 3.64443C17.1933 3.38043 16.8768 3.24889 16.4999 3.24981C16.1231 3.25072 15.8062 3.38272 15.5493 3.64581C15.2924 3.90889 15.1648 4.23522 15.1666 4.62481L15.1666 20.3342Z" fill="#3B9BD3"/>
</svg>
