<svg width="33" height="32" viewBox="0 0 33 32" fill="none" xmlns="http://www.w3.org/2000/svg">
<path d="M19.8342 17.3334L16.4998 23.0001C16.3165 23.3112 16.3508 23.5836 16.6029 23.8174C16.855 24.0512 17.1415 24.0787 17.4623 23.9001L28.4279 17.1334C28.8633 16.8667 29.0811 16.4889 29.0811 16.0001C29.0811 15.5112 28.8633 15.1334 28.4279 14.8667L17.4623 8.10005C17.1415 7.92228 16.855 7.95028 16.6029 8.18405C16.3508 8.41783 16.3165 8.68983 16.4998 9.00005L19.8342 14.6667H4.12481C3.73522 14.6667 3.40843 14.7947 3.14443 15.0507C2.88043 15.3067 2.74889 15.6232 2.74981 16.0001C2.75072 16.3769 2.88272 16.6938 3.14581 16.9507C3.40889 17.2076 3.73522 17.3352 4.12481 17.3334H19.8342Z" fill="#3B9BD3"/>
</svg>
