<svg width="92" height="52" viewBox="0 0 92 52" fill="none" xmlns="http://www.w3.org/2000/svg">
<path d="M26 0C19.1044 0 12.4912 2.73928 7.61522 7.61522C2.73928 12.4912 0 19.1044 0 26C0 32.8956 2.73928 39.5088 7.61522 44.3848C12.4912 49.2607 19.1044 52 26 52C32.8956 52 39.5088 49.2607 44.3848 44.3848C49.2607 39.5088 52 32.8956 52 26C52 19.1044 49.2607 12.4912 44.3848 7.61522C39.5088 2.73928 32.8956 0 26 0ZM67 2C59.82 2 54 12.746 54 26C54 28.486 54.204 30.882 54.584 33.136C55.09 36.142 55.908 38.894 56.968 41.266C57.498 42.452 58.088 43.542 58.73 44.52C60.014 46.476 61.506 47.986 63.134 48.922C64.356 49.622 65.654 50 67 50C68.346 50 69.644 49.622 70.866 48.922C72.494 47.986 73.986 46.476 75.27 44.52C75.912 43.542 76.502 42.452 77.032 41.266C78.092 38.896 78.91 36.142 79.416 33.136C79.796 30.882 80 28.486 80 26C80 12.746 74.18 2 67 2ZM87 4C86.482 4 85.982 4.346 85.514 4.99C85.2 5.418 84.9 5.978 84.618 6.656C84.476 6.994 84.338 7.362 84.206 7.758C83.94 8.548 83.692 9.45 83.466 10.444C83.014 12.434 82.648 14.806 82.394 17.438C82.268 18.754 82.17 20.136 82.102 21.568C82.034 22.998 82 24.482 82 26C82 27.518 82.034 29.002 82.102 30.434C82.168 31.866 82.266 33.248 82.394 34.564C82.648 37.196 83.014 39.566 83.466 41.558C83.692 42.554 83.94 43.454 84.206 44.244C84.338 44.64 84.476 45.008 84.618 45.346C84.902 46.024 85.202 46.584 85.514 47.012C85.982 47.654 86.482 48 87 48C89.762 48 92 38.15 92 26C92 13.85 89.762 4 87 4Z" fill="white"/>
</svg>
